<svg width="150" height="30" viewBox="0 0 150 30" fill="none" xmlns="http://www.w3.org/2000/svg">
<g clip-path="url(#clip0_383_8230)">
<path d="M47.8587 18.4408C47.8587 21.2507 46.2715 22.8638 43.1491 22.8638H35.6825V19.5351H42.2649C43.2273 19.5351 43.6956 19.1967 43.6956 18.3383C43.6956 17.6359 43.1754 17.1934 42.0306 16.3868L38.128 13.369C36.1506 11.8602 35.3182 10.455 35.3182 8.78926C35.3182 5.95223 36.9835 4.65291 40.2627 4.65291H47.5477V7.98315H40.9882C39.9749 7.98315 39.4793 8.32118 39.4793 9.20589C39.4793 9.88235 39.9997 10.3245 41.1707 11.1051L45.0472 13.8108C47.0268 15.1624 47.8587 16.8014 47.8587 18.4408Z" fill="white"/>
<path d="M63.4939 7.98185H58.8107V22.8633H54.6464V7.98185H49.9651V4.65161H63.4939V7.98185Z" fill="white"/>
<path fill-rule="evenodd" clip-rule="evenodd" d="M68.178 19.351H75.5138L76.762 22.8633H81.2892L74.0304 4.65161H69.6593L62.4006 22.8633H66.9273L68.178 19.351ZM71.8716 9.10053L74.4192 16.3074H69.2957L71.8716 9.10053Z" fill="white"/>
<path fill-rule="evenodd" clip-rule="evenodd" d="M92.6827 22.8633H96.8714L96.065 19.3782C95.4926 16.8273 94.79 15.4744 93.3593 14.7984C95.3628 14.1739 96.3516 12.6386 96.3516 10.1149C96.3516 6.36883 94.5824 4.65161 90.7055 4.65161H83.2384V22.8633H87.4015V16.2818H89.0665C90.8876 16.3081 91.3562 16.9586 91.8764 19.3778L92.6827 22.8633ZM92.1885 10.5052C92.1885 12.4307 91.5127 13.2372 89.2226 13.2372H87.4019V7.77352H89.2226C91.5127 7.77352 92.1885 8.57967 92.1885 10.5052Z" fill="white"/>
<path fill-rule="evenodd" clip-rule="evenodd" d="M110.402 4.65161L103.768 13.4715L110.868 22.8633H115.841L108.4 13.4715L115.371 4.65161H110.402ZM99.6018 22.8634H103.767V4.65173H99.6018V22.8634Z" fill="white"/>
<path d="M123.978 21.5894H128.913C129.267 21.5982 129.621 21.5411 129.955 21.4208C130.224 21.3203 130.469 21.165 130.674 20.9649C130.865 20.7729 131.017 20.5461 131.123 20.2965C131.232 20.0386 131.308 19.7679 131.348 19.4908L131.523 18.3917H132.86L132.685 22.8632H118.97V21.7892H119.294C119.564 21.7903 119.833 21.7715 120.1 21.7329C120.336 21.7018 120.563 21.6232 120.768 21.5019C120.967 21.377 121.125 21.1969 121.224 20.9835C121.347 20.6981 121.405 20.3885 121.392 20.0777V7.51172C121.405 7.18326 121.35 6.85573 121.23 6.54953C121.136 6.32554 120.98 6.13285 120.78 5.99388C120.579 5.86111 120.351 5.77387 120.112 5.73815C119.841 5.69465 119.568 5.67321 119.294 5.67414H118.97V4.6001H131.86L131.985 9.07208H130.661L130.536 7.9725C130.505 7.69707 130.439 7.42654 130.342 7.1668C130.25 6.9191 130.111 6.69199 129.931 6.49849C129.741 6.30012 129.511 6.14469 129.256 6.04253C128.943 5.92265 128.61 5.86537 128.275 5.87392H123.979V12.6828H130.15V13.9319H123.978V21.5894Z" fill="#F6643C"/>
<path d="M144.059 10.9716C144.085 10.7027 143.922 10.4517 143.666 10.3661C143.35 10.2619 143.018 10.2133 142.685 10.2222H142.61V9.14818H148.206V10.2222H147.982C147.753 10.2202 147.525 10.241 147.301 10.2846C147.089 10.3295 146.886 10.4098 146.701 10.5221C146.478 10.6612 146.274 10.8292 146.096 11.0218C145.846 11.287 145.613 11.5664 145.396 11.8588L142.762 15.3686L146.521 20.4266C146.808 20.841 147.17 21.1984 147.588 21.4803C147.881 21.6708 148.22 21.7767 148.569 21.7863H148.906V22.8604H142.3V21.7863H142.425C143.449 21.7863 143.962 21.5026 143.962 20.9352C143.961 20.8404 143.949 20.746 143.924 20.6544C143.889 20.5358 143.839 20.4223 143.774 20.3167C143.699 20.1879 143.599 20.0318 143.475 19.8487C143.35 19.6654 143.188 19.4405 142.988 19.1739L141.277 16.8754L139.491 19.3736C139.416 19.4736 139.337 19.5903 139.254 19.7238C139.171 19.8565 139.096 19.9942 139.029 20.136C138.963 20.2749 138.909 20.419 138.867 20.5668C138.827 20.7026 138.806 20.8434 138.804 20.9851C138.786 21.2462 138.93 21.4918 139.167 21.6035C139.557 21.7495 139.974 21.8113 140.391 21.7847H140.466V22.8587H134.367V21.7847H134.604C134.876 21.7879 135.148 21.7628 135.414 21.7097C135.648 21.6593 135.872 21.5707 136.076 21.4475C136.305 21.3057 136.515 21.1356 136.701 20.9413C136.944 20.6893 137.173 20.4246 137.388 20.1482L140.611 15.9765L137.388 11.5791C137.073 11.1918 136.704 10.8508 136.294 10.5659C135.968 10.3419 135.583 10.2201 135.188 10.2161H134.853V9.1421H141.349V10.2161H141.274C141.031 10.212 140.789 10.2309 140.55 10.2724C140.391 10.2975 140.238 10.3525 140.1 10.4346C140.003 10.4924 139.925 10.5768 139.875 10.6778C139.834 10.7678 139.812 10.8659 139.812 10.9651C139.815 11.1491 139.869 11.3287 139.968 11.4835C140.073 11.6545 140.221 11.8731 140.414 12.1392L142.1 14.4376L143.425 12.5267C143.6 12.2642 143.754 11.9884 143.887 11.7019C143.995 11.4734 144.054 11.2245 144.059 10.9716Z" fill="#F6643C"/>
<g clip-path="url(#clip1_383_8230)">
<path d="M1.74232 14.3016L10.7195 9.10211C10.9934 8.94019 11.3055 8.85416 11.6237 8.85287C11.7093 8.85258 11.7947 8.85883 11.8794 8.87148C12.0953 8.90095 12.3043 8.96849 12.4967 9.0709L13.837 9.83812L21.7296 14.3826C21.9611 14.5405 22.1532 14.7497 22.2909 14.9938C22.3368 15.0759 22.3764 15.1614 22.4092 15.2495L22.3857 1.29704C22.385 1.05967 22.2899 0.832331 22.1214 0.665093C21.953 0.497856 21.725 0.404433 21.4876 0.405403L1.79703 0.436206C1.30431 0.441954 0.907354 0.84198 0.905396 1.33473L0.92809 15.1677C0.958897 15.0995 0.993397 15.0331 1.03144 14.9687C1.20378 14.6862 1.44944 14.4556 1.74232 14.3016Z" fill="#28286E"/>
<path d="M0.934034 18.3914C0.96317 18.3276 0.995497 18.2655 1.0309 18.205C1.20324 17.9224 1.4489 17.6919 1.74178 17.5378L10.7189 12.3384C10.9928 12.1765 11.305 12.0905 11.6231 12.0891C11.7087 12.0889 11.7942 12.0951 11.8789 12.1078C12.0948 12.1373 12.3038 12.2048 12.4961 12.3072L13.8364 13.0744L21.729 17.6189C21.9606 17.7768 22.1527 17.9859 22.2904 18.2301C22.3396 18.3182 22.3814 18.4102 22.4152 18.5053L22.4099 16.219V15.2496C22.377 15.1615 22.3375 15.076 22.2916 14.9938C22.1539 14.7497 21.9618 14.5405 21.7302 14.3827L13.8364 9.83817L12.4961 9.07094C12.3038 8.96854 12.0948 8.90104 11.8789 8.87156C11.7942 8.85887 11.7087 8.85263 11.6231 8.85291C11.305 8.85421 10.9928 8.94028 10.7189 9.10216L1.74178 14.3016C1.4489 14.4557 1.20324 14.6862 1.0309 14.9687C0.992858 15.0331 0.958354 15.0996 0.927551 15.1677V16.2069L0.934034 18.3914Z" fill="#28286E"/>
<path opacity="0.4" d="M0.934034 18.3914C0.96317 18.3276 0.995497 18.2655 1.0309 18.205C1.20324 17.9224 1.4489 17.6919 1.74178 17.5378L10.7189 12.3384C10.9928 12.1765 11.305 12.0905 11.6231 12.0891C11.7087 12.0889 11.7942 12.0951 11.8789 12.1078C12.0948 12.1373 12.3038 12.2048 12.4961 12.3072L13.8364 13.0744L21.729 17.6189C21.9606 17.7768 22.1527 17.9859 22.2904 18.2301C22.3396 18.3182 22.3814 18.4102 22.4152 18.5053L22.4099 16.219V15.2496C22.377 15.1615 22.3375 15.076 22.2916 14.9938C22.1539 14.7497 21.9618 14.5405 21.7302 14.3827L13.8364 9.83817L12.4961 9.07094C12.3038 8.96854 12.0948 8.90104 11.8789 8.87156C11.7942 8.85887 11.7087 8.85263 11.6231 8.85291C11.305 8.85421 10.9928 8.94028 10.7189 9.10216L1.74178 14.3016C1.4489 14.4557 1.20324 14.6862 1.0309 14.9687C0.992858 15.0331 0.958354 15.0996 0.927551 15.1677V16.2069L0.934034 18.3914Z" fill="#F6643C"/>
<path d="M1.87172 20.8272L10.7321 15.6954C11.0023 15.5357 11.31 15.4508 11.6238 15.4494C11.7082 15.4491 11.7925 15.4554 11.8759 15.4681C12.0885 15.4971 12.2944 15.5637 12.4838 15.6646L13.8067 16.4217L21.5988 20.9074C21.8273 21.063 22.0168 21.2692 22.1524 21.5101C22.2744 21.7242 22.35 21.9616 22.3745 22.2068C22.4057 22.0775 22.422 21.9451 22.4231 21.812L22.4158 18.5053C22.382 18.4102 22.3403 18.3181 22.291 18.2301C22.1533 17.9859 21.9613 17.7768 21.7297 17.6189L13.8371 13.0744L12.4968 12.3072C12.3044 12.2048 12.0954 12.1372 11.8795 12.1078C11.7949 12.0951 11.7094 12.0889 11.6238 12.0891C11.3056 12.0905 10.9935 12.1765 10.7196 12.3384L1.74243 17.5378C1.44956 17.6919 1.20389 17.9225 1.03156 18.2049C0.996156 18.2654 0.963825 18.3277 0.934692 18.3914L0.942391 21.8493C0.942391 21.9093 0.948472 21.9681 0.954144 22.0264C0.997186 21.836 1.07009 21.6535 1.17016 21.4858C1.34023 21.2069 1.58267 20.9793 1.87172 20.8272Z" fill="#28286E"/>
<path opacity="0.7" d="M1.87172 20.8272L10.7321 15.6954C11.0023 15.5357 11.31 15.4508 11.6238 15.4494C11.7082 15.4491 11.7925 15.4554 11.8759 15.4681C12.0885 15.4971 12.2944 15.5637 12.4838 15.6646L13.8067 16.4217L21.5988 20.9074C21.8273 21.063 22.0168 21.2692 22.1524 21.5101C22.2744 21.7242 22.35 21.9616 22.3745 22.2068C22.4057 22.0775 22.422 21.9451 22.4231 21.812L22.4158 18.5053C22.382 18.4102 22.3403 18.3181 22.291 18.2301C22.1533 17.9859 21.9613 17.7768 21.7297 17.6189L13.8371 13.0744L12.4968 12.3072C12.3044 12.2048 12.0954 12.1372 11.8795 12.1078C11.7949 12.0951 11.7094 12.0889 11.6238 12.0891C11.3056 12.0905 10.9935 12.1765 10.7196 12.3384L1.74243 17.5378C1.44956 17.6919 1.20389 17.9225 1.03156 18.2049C0.996156 18.2654 0.963825 18.3277 0.934692 18.3914L0.942391 21.8493C0.942391 21.9093 0.948472 21.9681 0.954144 22.0264C0.997186 21.836 1.07009 21.6535 1.17016 21.4858C1.34023 21.2069 1.58267 20.9793 1.87172 20.8272Z" fill="#F6643C"/>
<path d="M1.7294 23.3258L9.51947 27.8115L10.8423 28.5686C11.0318 28.6694 11.2376 28.736 11.4503 28.7651C11.5337 28.7778 11.618 28.784 11.7024 28.7838C12.0161 28.7824 12.3239 28.6975 12.594 28.5378L21.4565 23.406C21.7456 23.254 21.9881 23.0264 22.158 22.7474C22.2581 22.5797 22.331 22.3972 22.374 22.2067C22.3495 21.9615 22.2739 21.7242 22.1519 21.51C22.0163 21.2692 21.8268 21.0629 21.5983 20.9074L13.8083 16.4216L12.4854 15.6646C12.2959 15.5636 12.0901 15.4971 11.8774 15.468C11.794 15.4553 11.7098 15.4491 11.6253 15.4493C11.3116 15.4508 11.0038 15.5357 10.7337 15.6953L1.87125 20.8271C1.5822 20.9793 1.33976 21.2069 1.16969 21.4858C1.06962 21.6534 0.996716 21.8359 0.953674 22.0264C0.978169 22.2716 1.05383 22.509 1.17577 22.7231C1.3114 22.9639 1.50087 23.1702 1.7294 23.3258Z" fill="#F6643C"/>
</g>
</g>
<defs>
<clipPath id="clip0_383_8230">
<rect width="148.784" height="30" fill="white" transform="translate(0.5)"/>
</clipPath>
<clipPath id="clip1_383_8230">
<rect width="21.4865" height="28.3784" fill="white" transform="translate(0.905396 0.405396)"/>
</clipPath>
</defs>
</svg>
